<svg width="20" height="18" viewBox="0 0 20 18" fill="none" xmlns="http://www.w3.org/2000/svg">
<path d="M3.4035 16.7071C3.31112 17.206 3.83073 17.5965 4.28963 17.3731L9.50183 14.8351L14.714 17.3731C15.1729 17.5965 15.6925 17.206 15.6002 16.7071L14.6149 11.3864L18.7976 7.6102C19.1885 7.25729 18.9862 6.61204 18.4625 6.54156L12.6456 5.7587L10.0519 0.891343C9.81828 0.452886 9.18538 0.452886 8.95174 0.891343L6.3581 5.7587L0.54116 6.54156C0.0174855 6.61204 -0.184865 7.25729 0.206037 7.6102L4.38881 11.3864L3.4035 16.7071ZM9.22772 13.5929L4.85089 15.7241L5.67532 11.2722C5.71418 11.0623 5.64111 10.8474 5.48206 10.7038L2.03019 7.58745L6.8423 6.93983C7.04123 6.91305 7.21492 6.79269 7.30876 6.61658L9.50183 2.50096L11.6949 6.61658C11.7887 6.79269 11.9624 6.91305 12.1614 6.93983L16.9735 7.58745L13.5216 10.7038C13.3626 10.8474 13.2895 11.0623 13.3283 11.2722L14.1528 15.7241L9.77594 13.5929C9.60305 13.5088 9.40061 13.5088 9.22772 13.5929Z" fill="black"/>
</svg>
