<svg width="21" height="20" viewBox="0 0 21 20" fill="none" xmlns="http://www.w3.org/2000/svg">
<path d="M17.8517 2.90805C15.8909 1.03112 13.2765 0 10.4925 0C4.75979 0 0.0898074 4.44761 0.0848181 9.90734C0.0848181 11.656 0.563791 13.3571 1.47184 14.8634L0 20L5.51816 18.622C7.0399 19.4108 8.75123 19.8289 10.4925 19.8289H10.4975C16.2302 19.8289 20.9002 15.3813 20.9052 9.91685C20.9002 7.27014 19.8175 4.78023 17.8517 2.90805ZM10.4925 18.1516C8.93583 18.1516 7.4141 17.7524 6.08695 17.0017L5.77262 16.8211L2.49964 17.6384L3.37277 14.5973L3.1682 14.2837C2.30007 12.9722 1.84604 11.4564 1.84604 9.90259C1.84604 5.36945 5.72772 1.67261 10.4975 1.67261C12.8075 1.67261 14.9779 2.53267 16.6144 4.08648C18.2459 5.64505 19.1439 7.71205 19.1439 9.91209C19.139 14.4595 15.2573 18.1516 10.4925 18.1516ZM15.2373 11.9838C14.9779 11.8603 13.7006 11.2616 13.4611 11.1761C13.2216 11.0953 13.047 11.0525 12.8774 11.2996C12.7028 11.5467 12.2038 12.1074 12.0541 12.2689C11.9045 12.4353 11.7498 12.4543 11.4904 12.3307C11.2309 12.2072 10.3927 11.9458 9.39984 11.1C8.6265 10.4443 8.10761 9.63174 7.95294 9.38465C7.80326 9.13756 7.93797 9.00451 8.0677 8.88097C8.18245 8.77168 8.32714 8.59111 8.45686 8.44856C8.58658 8.30601 8.63149 8.20147 8.71631 8.03516C8.80112 7.86885 8.76121 7.7263 8.69635 7.60276C8.63149 7.47921 8.1126 6.25802 7.89307 5.76384C7.68352 5.27916 7.46898 5.34569 7.30932 5.34094C7.15964 5.33143 6.98502 5.33143 6.81039 5.33143C6.63577 5.33143 6.35637 5.3932 6.11688 5.64029C5.87739 5.88738 5.20883 6.4861 5.20883 7.70729C5.20883 8.92849 6.14183 10.1022 6.27155 10.2685C6.40127 10.4348 8.10262 12.9342 10.712 14.0081C11.3307 14.2647 11.8147 14.4167 12.1938 14.5308C12.8175 14.7208 13.3813 14.6923 13.8303 14.6306C14.3293 14.5593 15.367 14.0318 15.5866 13.4521C15.8011 12.8724 15.8011 12.3782 15.7362 12.2737C15.6714 12.1692 15.4968 12.1074 15.2373 11.9838Z" fill="black"/>
</svg>
