<svg width="42" height="38" viewBox="0 0 42 38" fill="none" xmlns="http://www.w3.org/2000/svg">
<path d="M16.9189 27.7578V15.0942H15.2578C14.1709 15.623 12.8687 16.3188 11.8125 17.0054V18.6567C12.7969 18.0444 14.3555 17.1816 15.1143 16.8105H15.145V27.7578H16.9189Z" fill="black"/>
<path d="M20.0361 24.6592C20.1592 26.1807 21.5947 27.999 24.5068 27.999C27.8086 27.999 29.7568 25.4663 29.7568 21.1802C29.7568 16.5879 27.7061 14.8438 24.6299 14.8438C22.1997 14.8438 19.9131 16.4395 19.9131 19.1392C19.9131 21.8945 22.0767 23.3418 24.312 23.3418C26.2705 23.3418 27.542 22.4512 27.9419 21.4678H28.0137C28.0034 24.5942 26.8037 26.6074 24.5889 26.6074C22.8457 26.6074 21.9434 25.5405 21.8306 24.6592H20.0361ZM27.7881 19.1577C27.7881 20.8091 26.3218 21.9595 24.6812 21.9595C23.1021 21.9595 21.6768 21.0503 21.6768 19.1113C21.6768 17.1538 23.2046 16.2354 24.7427 16.2354C26.4038 16.2354 27.7881 17.1816 27.7881 19.1577Z" fill="black"/>
<path d="M9.1875 0C9.91237 0 10.5 0.531662 10.5 1.1875V2.375H31.5V1.1875C31.5 0.531662 32.0876 0 32.8125 0C33.5374 0 34.125 0.531662 34.125 1.1875V2.375H36.75C39.6495 2.375 42 4.50165 42 7.125V33.25C42 35.8734 39.6495 38 36.75 38H5.25C2.35051 38 0 35.8734 0 33.25V7.125C0 4.50165 2.35051 2.375 5.25 2.375H7.875V1.1875C7.875 0.531662 8.46263 0 9.1875 0ZM2.625 9.5V33.25C2.625 34.5617 3.80025 35.625 5.25 35.625H36.75C38.1997 35.625 39.375 34.5617 39.375 33.25V9.5H2.625Z" fill="black"/>
</svg>
