<svg width="30" height="28" viewBox="0 0 30 28" fill="none" xmlns="http://www.w3.org/2000/svg">
<path d="M15 1.75C12.9289 1.75 11.25 3.317 11.25 5.25V8.75H9.37495V5.25C9.37495 2.35051 11.8934 0 15 0C18.1066 0 20.625 2.35051 20.625 5.25V8.75H18.75V5.25C18.75 3.317 17.071 1.75 15 1.75Z" fill="black"/>
<path d="M9.37495 8.75H6.30225C4.91007 8.75 3.72738 9.70062 3.52087 10.9856L1.59384 22.976C1.16873 25.6212 3.36369 28 6.22947 28H23.7706C26.6364 28 28.8313 25.6212 28.4062 22.976L26.4792 10.9856C26.2727 9.70061 25.09 8.75 23.6978 8.75H20.625V11.375C20.625 11.8582 20.2052 12.25 19.6875 12.25C19.1697 12.25 18.75 11.8582 18.75 11.375V8.75H11.25V11.375C11.25 11.8582 10.8302 12.25 10.3125 12.25C9.79469 12.25 9.37495 11.8582 9.37495 11.375V8.75Z" fill="black"/>
</svg>
