<svg width="44" height="38" viewBox="0 0 44 38" fill="none" xmlns="http://www.w3.org/2000/svg">
<path d="M7.36419 28.2481C7.94277 28.7492 8.23248 29.4471 8.15439 30.1515C7.97938 31.7302 7.5763 33.3732 7.05862 34.8994C10.8946 34.1337 13.2373 33.2455 14.3022 32.7795C14.9067 32.5149 15.603 32.4524 16.2575 32.604C18.0666 33.0229 19.9946 33.25 22 33.25C32.9879 33.25 41.25 26.5821 41.25 19C41.25 11.4179 32.9879 4.75 22 4.75C11.0121 4.75 2.75 11.4179 2.75 19C2.75 22.4867 4.44759 25.7222 7.36419 28.2481ZM6.00846 37.5225C5.98994 37.5256 5.97139 37.5288 5.95282 37.532C5.70029 37.575 5.44286 37.6173 5.1805 37.6588C4.81249 37.717 4.43477 37.7736 4.04723 37.8284C3.49994 37.9058 3.08101 37.4113 3.29719 36.9702C3.43843 36.6821 3.57767 36.3801 3.71333 36.0669C3.7995 35.868 3.88423 35.6646 3.96711 35.4573C3.97069 35.4484 3.97425 35.4395 3.97782 35.4305C4.65911 33.7212 5.2139 31.7564 5.41691 29.9252C2.04342 27.0035 0 23.1821 0 19C0 9.81827 9.84974 2.375 22 2.375C34.1503 2.375 44 9.81827 44 19C44 28.1817 34.1503 35.625 22 35.625C19.7539 35.625 17.5865 35.3706 15.5453 34.898C14.1168 35.5232 11.0394 36.6612 6.00846 37.5225Z" fill="black"/>
</svg>
