<svg width="22" height="20" viewBox="0 0 22 20" fill="none" xmlns="http://www.w3.org/2000/svg">
<path d="M22 10C22 15.5228 17.0751 20 11 20C4.92487 20 0 15.5228 0 10C0 4.47715 4.92487 0 11 0C17.0751 0 22 4.47715 22 10ZM11.3942 7.38249C10.3243 7.78704 8.18601 8.62437 4.97929 9.89448C4.45857 10.0827 4.18579 10.2669 4.16096 10.447C4.11899 10.7513 4.53821 10.8711 5.10907 11.0343C5.18672 11.0565 5.26718 11.0795 5.34967 11.1039C5.91131 11.2698 6.66681 11.464 7.05957 11.4717C7.41584 11.4787 7.81347 11.3452 8.25248 11.0712C11.2486 9.23254 12.7952 8.30322 12.8923 8.28318C12.9608 8.26905 13.0558 8.25128 13.1201 8.30325C13.1844 8.35522 13.1781 8.45364 13.1713 8.48005C13.1297 8.64099 11.4842 10.0318 10.6326 10.7515C10.3671 10.9759 10.1788 11.1351 10.1403 11.1714C10.0541 11.2528 9.96617 11.3298 9.8817 11.4039C9.35992 11.8611 8.96864 12.2041 9.90337 12.764C10.3526 13.0331 10.712 13.2556 11.0706 13.4777C11.4622 13.7201 11.8528 13.9619 12.3582 14.2631C12.487 14.3398 12.6099 14.4195 12.7297 14.4971C13.1855 14.7925 13.5949 15.0579 14.1008 15.0156C14.3947 14.991 14.6983 14.7397 14.8525 13.9903C15.2169 12.2193 15.9332 8.38209 16.0988 6.80086C16.1133 6.66232 16.095 6.48502 16.0804 6.40719C16.0657 6.32936 16.0351 6.21847 15.9238 6.13638C15.792 6.03916 15.5886 6.01866 15.4976 6.02012C15.0838 6.02675 14.4491 6.2274 11.3942 7.38249Z" fill="black"/>
</svg>
